<svg width="36" height="34" viewBox="0 0 36 34" fill="none" xmlns="http://www.w3.org/2000/svg">
<g filter="url(#filter0_d_193_19)">
<path d="M6.66667 25.5C6.26528 25.5 5.92906 25.364 5.65801 25.092C5.38695 24.82 5.25095 24.4838 5.25 24.0833C5.24906 23.6829 5.38506 23.3467 5.65801 23.0747C5.93095 22.8027 6.26717 22.6667 6.66667 22.6667H29.3333C29.7347 22.6667 30.0714 22.8027 30.3434 23.0747C30.6154 23.3467 30.751 23.6829 30.75 24.0833C30.7491 24.4838 30.6131 24.8205 30.342 25.0934C30.071 25.3664 29.7347 25.5019 29.3333 25.5H6.66667ZM6.66667 18.4167C6.26528 18.4167 5.92906 18.2807 5.65801 18.0087C5.38695 17.7367 5.25095 17.4004 5.25 17C5.24906 16.5996 5.38506 16.2633 5.65801 15.9913C5.93095 15.7193 6.26717 15.5833 6.66667 15.5833H29.3333C29.7347 15.5833 30.0714 15.7193 30.3434 15.9913C30.6154 16.2633 30.751 16.5996 30.75 17C30.7491 17.4004 30.6131 17.7371 30.342 18.0101C30.071 18.283 29.7347 18.4186 29.3333 18.4167H6.66667ZM6.66667 11.3333C6.26528 11.3333 5.92906 11.1973 5.65801 10.9253C5.38695 10.6533 5.25095 10.3171 5.25 9.91667C5.24906 9.51622 5.38506 9.18 5.65801 8.908C5.93095 8.636 6.26717 8.5 6.66667 8.5H29.3333C29.7347 8.5 30.0714 8.636 30.3434 8.908C30.6154 9.18 30.751 9.51622 30.75 9.91667C30.7491 10.3171 30.6131 10.6538 30.342 10.9267C30.071 11.1997 29.7347 11.3352 29.3333 11.3333H6.66667Z" fill="white"/>
</g>
<defs>
<filter id="filter0_d_193_19" x="-3.7" y="-4.7" width="43.4" height="43.4" filterUnits="userSpaceOnUse" color-interpolation-filters="sRGB">
<feFlood flood-opacity="0" result="BackgroundImageFix"/>
<feColorMatrix in="SourceAlpha" type="matrix" values="0 0 0 0 0 0 0 0 0 0 0 0 0 0 0 0 0 0 127 0" result="hardAlpha"/>
<feOffset/>
<feGaussianBlur stdDeviation="2.35"/>
<feComposite in2="hardAlpha" operator="out"/>
<feColorMatrix type="matrix" values="0 0 0 0 1 0 0 0 0 1 0 0 0 0 1 0 0 0 1 0"/>
<feBlend mode="normal" in2="BackgroundImageFix" result="effect1_dropShadow_193_19"/>
<feBlend mode="normal" in="SourceGraphic" in2="effect1_dropShadow_193_19" result="shape"/>
</filter>
</defs>
</svg>
